<svg width="8" height="8" viewBox="0 0 8 8" xmlns="http://www.w3.org/2000/svg" xmlns:xlink="http://www.w3.org/1999/xlink" overflow="hidden"><path d="M0.34 0C0.0638576 0.0441828-0.124183 0.303858-0.08 0.58-0.0358172 0.856142 0.223858 1.04418 0.5 1L2 1 2.09 1.25 2.5 2.5 2.91 3.75C2.95 3.88 3.12 4 3.25 4L6.75 4C6.89 4 7.05 3.88 7.09 3.75L7.9 1.25C7.94 1.12 7.88 1 7.74 1L3.3 1 2.92 0.28C2.83748 0.111508 2.66758 0.00339165 2.48 1.19209e-09L0.48 0C0.450061-0.00270549 0.419939-0.00270549 0.39 0 0.370018-0.00120108 0.349982-0.00120108 0.33 0ZM3.5 5C3.22 5 3 5.22 3 5.5 3 5.78 3.22 6 3.5 6 3.78 6 4 5.78 4 5.5 4 5.22 3.78 5 3.5 5ZM6.5 5C6.22 5 6 5.22 6 5.5 6 5.78 6.22 6 6.5 6 6.78 6 7 5.78 7 5.5 7 5.22 6.78 5 6.5 5Z" stroke="#000000" stroke-width="0.0860215" fill="#FFFFFF" transform="matrix(1 0 0 1 0 1)"/></svg>