<svg width="8" height="8" viewBox="0 0 8 8" xmlns="http://www.w3.org/2000/svg" xmlns:xlink="http://www.w3.org/1999/xlink" overflow="hidden"><path d="M2 0C1.45 0 0.96 0.23 0.59 0.59 0.23 0.95 1.11022e-16 1.44 1.11022e-16 2 1.11022e-16 2.55 0.23 3.04 0.59 3.41L4 6.82 7.41 3.41C7.77 3.05 8 2.56 8 2 8 1.45 7.77 0.96 7.41 0.59 7.05 0.23 6.56 1.11022e-16 6 1.11022e-16 5.45 1.11022e-16 4.96 0.23 4.59 0.59 4.23 0.95 4 1.44 4 2 4 1.45 3.77 0.96 3.41 0.59 3.05 0.23 2.56 1.11022e-16 2 1.11022e-16Z" stroke="#000000" stroke-width="0.177778" fill="#FFFFFF" transform="matrix(1 0 0 1 0 1)"/></svg>